<svg xmlns="http://www.w3.org/2000/svg" viewBox="0 0 64 64" role="img" aria-label="Growlee">
  <defs>
    <linearGradient id="g" x1="8" y1="6" x2="56" y2="58" gradientUnits="userSpaceOnUse">
      <stop stop-color="#534AB7"/>
      <stop offset="0.62" stop-color="#766CF0"/>
      <stop offset="1" stop-color="#1D9E75"/>
    </linearGradient>
    <radialGradient id="shine" cx="28%" cy="18%" r="65%">
      <stop stop-color="#FFFFFF" stop-opacity="0.34"/>
      <stop offset="0.55" stop-color="#FFFFFF" stop-opacity="0"/>
    </radialGradient>
  </defs>
  <rect x="4" y="4" width="56" height="56" rx="18" fill="url(#g)"/>
  <rect x="4" y="4" width="56" height="56" rx="18" fill="url(#shine)"/>
  <path d="M37.6 24.4c-1.45-2.68-4.24-4.24-7.8-4.24-6.8 0-11.36 5.02-11.36 12.15 0 7.58 4.9 12.38 12.04 12.38 5.46 0 9.36-2.79 10.7-7.69H29.04v-7.8h21.3v6.58c-.89 8.36-8.02 16.05-19.74 16.05-12.04 0-20.28-8.13-20.28-19.52S18.56 12.8 29.94 12.8c9.14 0 16.05 4.57 18.51 11.6H37.6Z" fill="#FFFFFF"/>
  <path d="M42.8 16.02c6.8.9 10.26 4.8 10.82 11.04-6.47-.22-10.6-3.9-10.82-11.04Z" fill="#E1F5EE"/>
</svg>
