<svg xmlns="http://www.w3.org/2000/svg" viewBox="0 0 220 56" role="img" aria-labelledby="title desc">
  <title id="title">Growlee</title>
  <desc id="desc">Logo Growlee</desc>
  <defs>
    <linearGradient id="g" x1="4" y1="4" x2="52" y2="52" gradientUnits="userSpaceOnUse">
      <stop stop-color="#534AB7"/>
      <stop offset="1" stop-color="#1D9E75"/>
    </linearGradient>
    <filter id="shadow" x="-30%" y="-30%" width="160%" height="160%">
      <feDropShadow dx="0" dy="10" stdDeviation="9" flood-color="#534AB7" flood-opacity="0.20"/>
    </filter>
  </defs>
  <g filter="url(#shadow)">
    <rect x="4" y="4" width="48" height="48" rx="16" fill="url(#g)"/>
    <path d="M32.9 20.2c-1.3-2.4-3.8-3.8-7-3.8-6.1 0-10.2 4.5-10.2 10.9 0 6.8 4.4 11.1 10.8 11.1 4.9 0 8.4-2.5 9.6-6.9H25.2v-7h19.1v5.9c-.8 7.5-7.2 14.4-17.7 14.4-10.8 0-18.2-7.3-18.2-17.5S15.8 9.8 26 9.8c8.2 0 14.4 4.1 16.6 10.4h-9.7Z" fill="white"/>
    <path d="M37.6 12.7c6.1.8 9.2 4.3 9.7 9.9-5.8-.2-9.5-3.5-9.7-9.9Z" fill="#E1F5EE"/>
  </g>
  <text x="66" y="37" font-family="Inter, ui-sans-serif, system-ui, -apple-system, BlinkMacSystemFont, 'Segoe UI', sans-serif" font-size="31" font-weight="850" letter-spacing="-1.6" fill="#1F2430">Growlee</text>
</svg>
